<?xml version="1.0" encoding="UTF-8"?>
<svg xmlns="http://www.w3.org/2000/svg" viewBox="0 0 400 400" width="400" height="400">
<defs>
    <linearGradient id="g5" x1="0" y1="0" x2="0" y2="1">
      <stop offset="0%" stop-color="#1B5E3A"/>
      <stop offset="100%" stop-color="#0D3D22"/>
    </linearGradient>
  </defs>

  <path d="M200,24 L356,82 L356,240 Q356,336 200,386 Q44,336 44,240 L44,82 Z" fill="#00000033" transform="translate(3,3)"/>
  <path d="M200,20 L360,80 L360,240 Q360,340 200,390 Q40,340 40,240 L40,80 Z" fill="url(#g5)" stroke="#FFFFFF" stroke-width="5"/>
  <path d="M200,34 L348,90 L348,238 Q348,330 200,376 Q52,330 52,238 L52,90 Z" fill="none" stroke="#FFFFFF22" stroke-width="1.5"/>

  <!-- Laurel wreath -->
  <g transform="translate(200,185)" fill="none" stroke="#4DA66A" stroke-width="2" stroke-linecap="round">
    <!-- Left branch -->
    <path d="M-20,60 Q-55,30 -50,-20 Q-48,-40 -40,-55"/>
    <ellipse cx="-52" cy="-5" rx="8" ry="15" transform="rotate(-20,-52,-5)" fill="#4DA66A55" stroke="#4DA66A"/>
    <ellipse cx="-48" cy="20" rx="8" ry="14" transform="rotate(-10,-48,20)" fill="#4DA66A55" stroke="#4DA66A"/>
    <ellipse cx="-40" cy="42" rx="7" ry="13" transform="rotate(0,-40,42)" fill="#4DA66A55" stroke="#4DA66A"/>
    <ellipse cx="-55" cy="-28" rx="7" ry="12" transform="rotate(-25,-55,-28)" fill="#4DA66A55" stroke="#4DA66A"/>
    <!-- Right branch -->
    <path d="M20,60 Q55,30 50,-20 Q48,-40 40,-55"/>
    <ellipse cx="52" cy="-5" rx="8" ry="15" transform="rotate(20,52,-5)" fill="#4DA66A55" stroke="#4DA66A"/>
    <ellipse cx="48" cy="20" rx="8" ry="14" transform="rotate(10,48,20)" fill="#4DA66A55" stroke="#4DA66A"/>
    <ellipse cx="40" cy="42" rx="7" ry="13" transform="rotate(0,40,42)" fill="#4DA66A55" stroke="#4DA66A"/>
    <ellipse cx="55" cy="-28" rx="7" ry="12" transform="rotate(25,55,-28)" fill="#4DA66A55" stroke="#4DA66A"/>
  </g>

  <!-- Key icon -->
  <g transform="translate(200,160)" fill="none" stroke="#FFFFFF" stroke-width="3.5" stroke-linecap="round">
    <circle cx="0" cy="-25" r="20"/>
    <circle cx="0" cy="-25" r="8"/>
    <line x1="0" y1="-5" x2="0" y2="45"/>
    <line x1="0" y1="30" x2="12" y2="30"/>
    <line x1="0" y1="40" x2="9" y2="40"/>
  </g>

  <!-- OKUSHIBU -->
  <text x="200" y="298" text-anchor="middle" font-family="'Futura','Helvetica Neue',sans-serif" font-weight="700" font-size="22" fill="#FFFFFF" letter-spacing="5">OKUSHIBU</text>
  <text x="200" y="325" text-anchor="middle" font-family="'Hiragino Kaku Gothic ProN','Noto Sans JP',sans-serif" font-weight="300" font-size="12" fill="#FFFFFF55" letter-spacing="2">奥渋附属高校</text>
</svg>